<?xml version="1.0" standalone="no"?><!DOCTYPE svg PUBLIC "-//W3C//DTD SVG 1.1//EN" "http://www.w3.org/Graphics/SVG/1.1/DTD/svg11.dtd"><svg t="1578292429967" class="icon" viewBox="0 0 1024 1024" version="1.1" xmlns="http://www.w3.org/2000/svg" p-id="3533" xmlns:xlink="http://www.w3.org/1999/xlink" width="200" height="200"><defs><style type="text/css"></style></defs><path d="M312 489.36h400a25.2 25.2 0 0 0 20.96-10.96 28.32 28.32 0 0 0 3.2-25.92L696.8 344a36.56 36.56 0 0 0-33.76-22.56H360.96a37.84 37.84 0 0 0-33.76 24L288 451.92a29.28 29.28 0 0 0 3.28 26.48A25.12 25.12 0 0 0 312 489.36z m44.96-132.96a7.28 7.28 0 0 1 3.76-3.04h302.32a6.64 6.64 0 0 1 3.68 1.52L704 457.36H320z" fill="#606060" p-id="3534"></path><path d="M876 445.36a52.64 52.64 0 0 0-54.32-52h-34.8l-29.2-75.68c-0.8-2.16-1.6-4.32-2.4-6.56-7.2-20.08-19.28-53.76-67.68-53.76h-65.04l-25.12-50.72a34.72 34.72 0 0 0-30.8-21.28H457.36a34.56 34.56 0 0 0-30.88 20.8L400 257.36h-64c-43.52 0-64.64 46.16-70.08 60.32l-29.2 75.68h-34.48a51.92 51.92 0 0 0-6.32 104l-3.36 9.28a283.44 283.44 0 0 0-15.36 86.56v180.72a64 64 0 1 0 128 0v-12.56h408v12.48a68.08 68.08 0 0 0 136 0V592.96a284 284 0 0 0-16.64-86.8l-3.68-9.2a52.16 52.16 0 0 0 47.12-51.6z m-54.32 20h-16a16 16 0 0 0-14.88 21.92l12.24 30.48a255.04 255.04 0 0 1 14.4 75.04v181.12a36.16 36.16 0 0 1-72 0v-28.56a16 16 0 0 0-16-16h-440a16 16 0 0 0-16 16v28.48a32 32 0 1 1-64 0V592.96a254.32 254.32 0 0 1 13.36-75.36l11.12-30.72a16 16 0 0 0-15.04-21.44h-16a20.08 20.08 0 1 1 0-40H248a16 16 0 0 0 14.96-10.24L296 329.2c7.04-18.4 21.84-40 40-40h64.8a16 16 0 0 0 8.48-2.48h1.44a16 16 0 0 0 14.24-8.72l29.44-57.28c1.76-3.2 2.56-3.84 2.56-3.68h108.88a13.04 13.04 0 0 1 2.72 4.08l27.84 56a16 16 0 0 0 10.24 8 16 16 0 0 0 10.16 3.68H688c24.72 0 29.92 11.12 37.52 32.56 0.88 2.48 1.76 4.96 2.72 7.28l32.8 86.56A16 16 0 0 0 776 425.36h45.76a20.08 20.08 0 1 1 0 40z" fill="#606060" p-id="3535"></path><path d="M730.16 535.2a54.24 54.24 0 1 0 54.32 54.32 54.32 54.32 0 0 0-54.32-54.32z m0 76.56a22.24 22.24 0 1 1 22.32-22.24 22.32 22.32 0 0 1-22.32 22.16zM293.76 535.2a54.24 54.24 0 1 0 54.32 54.32 54.32 54.32 0 0 0-54.32-54.32z m0 76.56a22.24 22.24 0 1 1 22.32-22.24 22.32 22.32 0 0 1-22.32 22.16z" fill="#606060" p-id="3536"></path></svg>