<?xml version="1.0" standalone="no"?><!DOCTYPE svg PUBLIC "-//W3C//DTD SVG 1.1//EN" "http://www.w3.org/Graphics/SVG/1.1/DTD/svg11.dtd"><svg t="1578291398755" class="icon" viewBox="0 0 1024 1024" version="1.1" xmlns="http://www.w3.org/2000/svg" p-id="1485" xmlns:xlink="http://www.w3.org/1999/xlink" width="200" height="200"><defs><style type="text/css"></style></defs><path d="M512 825.92a16 16 0 0 1-8.48-2.4c-13.76-8.56-336.56-211.68-360-412.88-6.8-59.2 12.8-112 58.24-157.92a164.8 164.8 0 0 1 125.44-54.64c64 0 130.32 32.48 184.48 89.76C565.92 230.56 632 198.08 696 198.08a164.72 164.72 0 0 1 125.44 54.64c45.76 45.92 65.44 99.28 58.56 158.72-23.36 201.28-346.24 403.52-360 412.08a16 16 0 0 1-8 2.4zM327.36 230.08a133.2 133.2 0 0 0-101.76 44.16l-0.72 0.72c-38.96 38.96-55.12 82.16-49.44 132C194.88 576 460.8 757.52 512 790.96c50.96-33.36 316.88-214.32 336.48-382.96 5.76-50.08-10.48-93.52-49.76-132.8l-0.72-0.72A133.2 133.2 0 0 0 696 230.08c-59.44 0-122.24 33.6-172.24 92.08A16 16 0 0 1 512 328a16 16 0 0 1-12.16-5.6C449.68 264 386.88 230.08 327.36 230.08z" fill="#606060" p-id="1486"></path></svg>