<?xml version="1.0" standalone="no"?><!DOCTYPE svg PUBLIC "-//W3C//DTD SVG 1.1//EN" "http://www.w3.org/Graphics/SVG/1.1/DTD/svg11.dtd"><svg t="1578291464948" class="icon" viewBox="0 0 1024 1024" version="1.1" xmlns="http://www.w3.org/2000/svg" p-id="1763" xmlns:xlink="http://www.w3.org/1999/xlink" width="200" height="200"><defs><style type="text/css"></style></defs><path d="M924.24 334l-240-145.92c-2.48-1.52-5.36-4.16-8-4.16h-57.28a17.84 17.84 0 0 0-15.12 12.72A90.88 90.88 0 0 1 520 258.8a91.36 91.36 0 0 1-83.76-62.48 17.36 17.36 0 0 0-15.2-12.32H348c-2.88 0-5.76 2.64-8 4.16l-240 144.96a16.64 16.64 0 0 0-6.64 20l56 144a16 16 0 0 0 19.76 9.6l130.72-41.28-7.52 361.68a12.16 12.16 0 0 0 4.56 9.68 14.72 14.72 0 0 0 11.44 2.96h400a14.56 14.56 0 0 0 16-14.16 6.96 6.96 0 0 0 0-1.68l-7.52-361.2 130.48 43.76a16 16 0 0 0 19.68-8.56l64-144a16 16 0 0 0-6.72-19.92zM843.28 472l-138.24-46.08a16 16 0 0 0-14.56 2.32 12.88 12.88 0 0 0-6.48 11.36l8 368.4H324.32l8-365.76a14.4 14.4 0 0 0-6.4-12.24 16 16 0 0 0-14.4-2L173.44 472 128 352.56 352.4 216h57.76A114.4 114.4 0 0 0 520 288a114.4 114.4 0 0 0 109.84-72h41.76l224 136z" fill="#606060" p-id="1764"></path></svg>