<?xml version="1.0" standalone="no"?><!DOCTYPE svg PUBLIC "-//W3C//DTD SVG 1.1//EN" "http://www.w3.org/Graphics/SVG/1.1/DTD/svg11.dtd"><svg t="1578292228588" class="icon" viewBox="0 0 1024 1024" version="1.1" xmlns="http://www.w3.org/2000/svg" p-id="17656" xmlns:xlink="http://www.w3.org/1999/xlink" width="200" height="200"><defs><style type="text/css"></style></defs><path d="M394.103467 166.8608c4.4032 12.8 9.250133 24.558933 15.104 35.857067 22.2208 42.939733 54.613333 70.7584 100.181333 73.984 32.0512 2.269867 59.306667-8.072533 99.498667-31.522134 37.853867-22.101333 35.601067-20.855467 44.2368-23.620266 5.802667-1.877333 5.290667-2.013867 6.741333 0.136533 6.485333 9.4208 10.3424 16.896 13.141333 24.7808 1.604267 4.539733 2.935467 9.386667 4.625067 16.657067 0.341333 1.467733 3.310933 14.609067 4.386133 19.1488 2.065067 8.704 4.181333 16.810667 6.741334 25.531733 6.519467 22.237867 15.445333 46.830933 28.1088 76.3392 10.7008 25.156267 19.694933 50.0736 29.2864 80.042667 4.983467 15.581867 20.5824 66.935467 23.074133 74.8544 19.848533 63.095467 35.669333 97.245867 61.320533 121.3952 4.386133 4.130133 22.016 20.411733 22.562134 20.906666 9.8816 9.1648 17.749333 16.657067 25.309866 24.183467 21.026133 20.8896 36.8128 39.2704 47.394134 56.046933 17.066667 27.050667 17.885867 43.434667 3.976533 55.808-19.985067 17.749333-69.512533 13.533867-137.898667-12.117333a834.2528 834.2528 0 0 1-77.4144-34.116267 1237.265067 1237.265067 0 0 1-103.936-58.282666c0.068267 0.017067 0.068267 0.017067-4.334933-3.1232a20849.134933 20849.134933 0 0 1-68.864-49.322667c-55.637333-39.953067-111.3088-80.1792-163.2256-118.101333l-9.096533-6.638934c-83.9168-61.3376-148.548267-109.6704-186.9824-140.151466a5988.232533 5988.232533 0 0 1 97.28-121.7024l9.386666-11.349334c1.4336-1.826133 2.730667-3.515733 4.522667-5.870933a5200.520533 5200.520533 0 0 1 40.6528-52.650667l2.440533-3.106133A1636.864 1636.864 0 0 1 360.704 165.546667c4.096-4.898133 7.458133-8.8064 10.001067-11.5712 3.874133-3.464533 11.264-5.870933 16.6912-6.229334 2.184533 5.2224 5.0688 14.370133 6.7072 19.114667z m-158.293334 74.410667a6035.677867 6035.677867 0 0 0-113.595733 142.7456l-15.0528 19.524266 18.909867 15.786667c34.6624 28.910933 107.741867 83.882667 208.725333 157.696l9.130667 6.656a26389.76 26389.76 0 0 0 232.5504 167.765333l5.358933 3.805867c2.56 1.706667 5.4784 3.5328 9.5744 6.058667a1287.850667 1287.850667 0 0 0 100.266667 55.688533 884.360533 884.360533 0 0 0 82.244266 36.215467c85.282133 32 150.391467 37.546667 189.866667 2.440533 36.386133-32.324267 34.235733-75.588267 5.3248-121.3952-13.021867-20.6336-31.061333-41.659733-54.613333-65.041067a1057.450667 1057.450667 0 0 0-26.555734-25.3952c-0.699733-0.648533-18.1248-16.725333-22.289066-20.650666-17.117867-16.110933-30.327467-44.612267-47.598934-99.498667-2.372267-7.5264-18.005333-59.050667-23.1424-75.076267-10.0352-31.368533-19.541333-57.7024-30.344533-83.080533-21.333333-49.783467-25.053867-62.429867-37.0688-114.005333a199.424 199.424 0 0 0-6.229333-22.084267c-4.317867-12.253867-10.24-23.688533-19.182934-36.693333-15.530667-22.664533-38.877867-28.2112-64.648533-19.9168-8.482133 2.730667-17.186133 6.792533-27.784533 12.663466a557.226667 557.226667 0 0 0-13.312 7.645867l-13.277867 7.8336c-31.761067 18.5344-51.4048 25.992533-70.058667 24.6784-24.814933-1.757867-43.52-17.8176-58.333866-46.455467a214.1184 214.1184 0 0 1-12.168534-28.9792c-2.048-6.007467-7.048533-22.084267-7.2192-22.613333-13.533867-40.618667-60.398933-37.632-90.624-18.7392-8.430933 5.256533-22.801067 22.4768-52.5824 60.347733l-2.491733 3.157334a4666.811733 4666.811733 0 0 0-44.544 57.770666c-1.809067 2.167467-4.932267 5.922133-9.233067 11.1616z" fill="#707070" p-id="17657"></path><path d="M755.473067 433.749333c11.264-3.652267 23.381333 2.440533 27.067733 13.824a21.486933 21.486933 0 0 1-13.7728 27.0848l-101.6832 33.041067a21.435733 21.435733 0 0 1-27.050667-13.824 21.486933 21.486933 0 0 1 13.7728-27.0848l101.666134-33.041067zM790.971733 505.122133c11.264-3.669333 23.381333 2.440533 27.067734 13.824a21.486933 21.486933 0 0 1-13.7728 27.0848l-101.6832 33.041067a21.435733 21.435733 0 0 1-27.050667-13.824 21.486933 21.486933 0 0 1 13.7728-27.0848l101.666133-33.041067zM720.622933 358.3488c11.281067-3.652267 23.381333 2.4576 27.067734 13.824a21.486933 21.486933 0 0 1-13.7728 27.0848l-101.666134 33.041067a21.435733 21.435733 0 0 1-27.067733-13.824 21.486933 21.486933 0 0 1 13.7728-27.0848l101.666133-33.041067zM148.0704 433.2032A25.6 25.6 0 1 0 108.373333 400.896l-42.871466 52.701867a25.6 25.6 0 0 0 4.0448 36.3008 2509.482667 2509.482667 0 0 0 19.6096 15.2576c15.616 12.117333 33.143467 25.6 52.206933 40.106666a7703.637333 7703.637333 0 0 0 163.8912 121.719467c12.322133 8.874667 24.405333 17.527467 36.266667 25.924267 60.125867 42.564267 112.657067 77.755733 155.562666 103.7312 83.114667 50.346667 154.402133 84.906667 224.494934 103.441066 96.324267 25.480533 178.312533 15.5136 240.162133-39.8336a25.6 25.6 0 1 0-34.133333-38.161066c-86.050133 77.0048-221.7984 41.1136-404.002134-69.239467-41.6768-25.258667-93.2864-59.8016-152.490666-101.717333a5321.386667 5321.386667 0 0 1-35.925334-25.668267 7653.717333 7653.717333 0 0 1-162.798933-120.917333c-18.432-14.062933-35.464533-27.136-50.670933-38.912l26.368-32.426667z" fill="#707070" p-id="17658"></path></svg>