<?xml version="1.0" standalone="no"?><!DOCTYPE svg PUBLIC "-//W3C//DTD SVG 1.1//EN" "http://www.w3.org/Graphics/SVG/1.1/DTD/svg11.dtd"><svg t="1578292121719" class="icon" viewBox="0 0 1024 1024" version="1.1" xmlns="http://www.w3.org/2000/svg" p-id="3395" xmlns:xlink="http://www.w3.org/1999/xlink" width="200" height="200"><defs><style type="text/css"></style></defs><path d="M826 198.08a60 60 0 0 0-84.88 0L568 370.8 274.8 336a50.64 50.64 0 0 0-38.16 13.28l-40.56 40.56A24 24 0 0 0 205.84 432L432 507.44 341.2 597.92l-112.8-4.48a16 16 0 0 0-11.92 4.64l-31.28 31.28a16 16 0 0 0 3.92 25.52L307.2 716.8l61.92 118.16a16 16 0 0 0 11.76 8h2.4a16 16 0 0 0 11.28-4.72l26.88-26.8a16 16 0 0 0 4.72-11.36v-117.6L516.56 592 592 818.16a24.4 24.4 0 0 0 23.12 17.92 26.16 26.16 0 0 0 18.4-8l35.36-35.36a50.88 50.88 0 0 0 13.52-37.92l-29.84-298.4 173.44-173.44a60.08 60.08 0 0 0 0-84.88z m-22.64 62.32L624.56 439.12a16 16 0 0 0-4.64 12.96l31.04 305.76a20.16 20.16 0 0 1-4.32 12.08l-27.44 27.52-80.48-240a16 16 0 0 0-26.72-6L398.56 665.12a16.88 16.88 0 0 0-1.68 2 16 16 0 0 0-3.04 10.16v116.8l-6.72 6.72-53.92-103.28a16 16 0 0 0-6.72-6.72L223.2 636.64l10.96-10.88 112.8 4.48a16 16 0 0 0 11.92-4.64L472.56 512a16 16 0 0 0-6.24-26.4l-240-80 32.72-32a19.68 19.68 0 0 1 11.68-3.44l301.2 34.8a16.4 16.4 0 0 0 13.2-5.2l178.56-179.12a28.72 28.72 0 0 1 40 0 28.08 28.08 0 0 1-0.32 39.68z" fill="#606060" p-id="3396"></path></svg>