<?xml version="1.0" standalone="no"?><!DOCTYPE svg PUBLIC "-//W3C//DTD SVG 1.1//EN" "http://www.w3.org/Graphics/SVG/1.1/DTD/svg11.dtd"><svg t="1578037669327" class="icon" viewBox="0 0 1026 1024" version="1.1" xmlns="http://www.w3.org/2000/svg" p-id="1644" xmlns:xlink="http://www.w3.org/1999/xlink" width="200.390625" height="200"><defs><style type="text/css"></style></defs><path d="M826.022253 954.178182H197.753886c-107.260648 0-197.817818-93.309084-197.817818-203.705634 0-102.844786 78.781538-190.970032 176.442486-202.361676a128.187994 128.187994 0 0 1 126.07606-105.980689c9.27971 0 18.495422 1.023968 27.51914 3.135902a266.999656 266.999656 0 0 1 251.832131-177.59445 267.83163 267.83163 0 0 1 267.19165 280.695229c97.020968 12.031624 174.906534 99.772882 174.906534 202.169682-0.063998 110.332552-90.621168 203.641636-197.881816 203.641636zM197.753886 593.421456c-82.045436 0-151.291272 71.99775-151.291272 157.051092 0 85.181338 69.309834 157.179088 151.291272 157.179088h628.268367c82.045436 0 151.291272-71.99775 151.291272-157.179088 0-85.053342-69.245836-157.051092-151.291272-157.051092 0.383988 0.191994-1.215962 0.255992-2.815912 0.255992h-26.815162l3.903878-26.55917c1.663948-12.351614 2.495922-22.527296 2.495922-31.935002a221.43308 221.43308 0 0 0-221.049092-221.113091 220.7931 220.7931 0 0 0-214.009313 166.330802l-6.847786 26.87916-25.215212-11.263648a81.469454 81.469454 0 0 0-33.27896-7.231774c-44.862598 0-81.405456 36.542858-81.405456 81.405457v23.295272h-23.231274z" fill="#e8989a" p-id="1645"></path><path d="M176.250558 551.950752a23.231274 23.231274 0 0 1-19.967376-11.263648 278.839286 278.839286 0 0 1-39.99875-144.251493 280.31124 280.31124 0 0 1 279.99125-279.99125c107.51664 0 206.841536 62.71804 252.984095 159.995a23.103278 23.103278 0 0 1-11.071654 30.911034 23.295272 23.295272 0 0 1-30.975032-11.071654 234.616668 234.616668 0 0 0-210.937409-133.371832 233.720696 233.720696 0 0 0-233.464704 233.400706c0 42.55867 11.51964 84.029374 33.342958 120.252243a23.295272 23.295272 0 0 1-19.903378 35.390894zM399.603578 69.853817a23.35927 23.35927 0 0 1-23.295272-23.35927V23.263273a23.231274 23.231274 0 1 1 46.526546 0v23.231274a23.167276 23.167276 0 0 1-23.231274 23.35927zM50.558486 418.898909H27.263214a23.295272 23.295272 0 1 1 0-46.526546h23.295272a23.231274 23.231274 0 0 1 0 46.526546zM139.515706 162.906909a22.975282 22.975282 0 0 1-16.447486-6.847786l-23.295272-23.231274a23.35927 23.35927 0 0 1 32.894972-32.95897l23.295272 23.35927a23.231274 23.231274 0 0 1-16.447486 39.67876zM651.499707 162.906909a22.71929 22.71929 0 0 1-16.447486-6.847786 23.167276 23.167276 0 0 1 0-32.894972l23.231274-23.35927a23.423268 23.423268 0 0 1 32.95897 0 23.423268 23.423268 0 0 1 0 32.95897l-23.35927 23.231274a22.527296 22.527296 0 0 1-16.383488 6.911784z" fill="#e8989a" p-id="1646"></path></svg>