<?xml version="1.0" standalone="no"?><!DOCTYPE svg PUBLIC "-//W3C//DTD SVG 1.1//EN" "http://www.w3.org/Graphics/SVG/1.1/DTD/svg11.dtd"><svg t="1584246317428" class="icon" viewBox="0 0 1024 1024" version="1.1" xmlns="http://www.w3.org/2000/svg" p-id="2309" xmlns:xlink="http://www.w3.org/1999/xlink" width="200" height="200"><defs><style type="text/css"></style></defs><path d="M141.36363652 285.24090869L444.45909131 100.86363653a122.72727305 122.72727305 0 0 1 127.75909043 0.08181826l301.5 184.21363652a122.72727305 122.72727305 0 0 1 58.78636347 104.72727217V839.27272695a122.72727305 122.72727305 0 0 1-122.72727216 122.72727305H205.18181826a122.72727305 122.72727305 0 0 1-122.72727305-122.72727305V390.09090869a122.72727305 122.72727305 0 0 1 58.90909132-104.85z m34.03636348 55.92272783A57.27272695 57.27272695 0 0 0 147.90909131 390.09090869V839.27272695A57.27272695 57.27272695 0 0 0 205.18181826 896.54545479h604.55454521a57.27272695 57.27272695 0 0 0 57.27272784-57.27272784V389.92727305a57.27272695 57.27272695 0 0 0-27.40909131-48.88636436l-301.5-184.17272695a57.27272695 57.27272695 0 0 0-59.64545479-0.08181827L175.4 341.16363653z" p-id="2310" fill="#FFC0CB"></path><path d="M348.36363653 769.72727305h327.27272694a32.72727305 32.72727305 0 1 0 1e-8-65.4545461h-327.27272695a32.72727305 32.72727305 0 1 0-1e-8 65.4545461z" p-id="2311" fill="#FFC0CB"></path></svg>