<?xml version="1.0" standalone="no"?><!DOCTYPE svg PUBLIC "-//W3C//DTD SVG 1.1//EN" "http://www.w3.org/Graphics/SVG/1.1/DTD/svg11.dtd"><svg t="1584261245569" class="icon" viewBox="0 0 1024 1024" version="1.1" xmlns="http://www.w3.org/2000/svg" p-id="1318" xmlns:xlink="http://www.w3.org/1999/xlink" width="200" height="200"><defs><style type="text/css"></style></defs><path d="M0 0m204.8 0l614.4 0q204.8 0 204.8 204.8l0 614.4q0 204.8-204.8 204.8l-614.4 0q-204.8 0-204.8-204.8l0-614.4q0-204.8 204.8-204.8Z" fill="#48B5FF" p-id="1319"></path><path d="M819.2 0H534.272A756.48 756.48 0 0 0 0 483.584V819.2a204.8 204.8 0 0 0 204.8 204.8h614.4a204.8 204.8 0 0 0 204.8-204.8V204.8a204.8 204.8 0 0 0-204.8-204.8z" fill="#4DAFFF" p-id="1320"></path><path d="M819.2 0h-3.84a755.2 755.2 0 0 0-539.392 1024H819.2a204.8 204.8 0 0 0 204.8-204.8V204.8a204.8 204.8 0 0 0-204.8-204.8z" fill="#50A8FF" p-id="1321"></path><path d="M497.152 721.152A752.384 752.384 0 0 0 560.384 1024H819.2a204.8 204.8 0 0 0 204.8-204.8V204.8a204.8 204.8 0 0 0-89.088-168.96 755.2 755.2 0 0 0-437.76 685.312z" fill="#50A0FF" p-id="1322"></path><path d="M727.04 429.312v-1.28a215.04 215.04 0 0 0-430.08 0v1.28a163.584 163.584 0 0 0 20.224 325.888h389.632a163.584 163.584 0 0 0 20.224-325.888z" fill="#E9F6FF" p-id="1323"></path><path d="M512 217.6a212.736 212.736 0 0 0-215.04 210.432v1.28a163.584 163.584 0 0 0 20.224 325.888h70.656A669.44 669.44 0 0 0 537.6 633.088a611.84 611.84 0 0 0 158.464-314.624A215.808 215.808 0 0 0 512 217.6z" fill="#FFFFFF" p-id="1324"></path></svg>