<?xml version="1.0" standalone="no"?><!DOCTYPE svg PUBLIC "-//W3C//DTD SVG 1.1//EN" "http://www.w3.org/Graphics/SVG/1.1/DTD/svg11.dtd"><svg t="1578291808252" class="icon" viewBox="0 0 1024 1024" version="1.1" xmlns="http://www.w3.org/2000/svg" p-id="2177" xmlns:xlink="http://www.w3.org/1999/xlink" width="200" height="200"><defs><style type="text/css"></style></defs><path d="M848 433.76c-5.52-17.36-21.68-30.56-48-39.2h-1.04l-142.08-36.72-92.8-132.88-0.56-0.96c-14.88-19.6-33.44-30.4-52.24-30.4-13.6 0-33.52 5.52-51.44 32l-79.36 121.44-106.72 30.48L221.84 392c-24 7.36-39.52 19.36-45.44 35.6s-1.84 36.88 13.44 60.72l1.2 1.68 93.28 111.44q-2.4 80-4.88 160.4c-2.4 25.6 1.6 43.68 12 55.2a42.24 42.24 0 0 0 32.8 13.12 126.56 126.56 0 0 0 40-8l137.36-52.88L657.68 824a98.48 98.48 0 0 0 28.16 4.64c19.28 0 52.08-8 54.72-64a16 16 0 0 0 0-1.68q-4.56-72-8.64-143.36v-0.64l101.12-128c15.52-20.88 20.72-40.24 14.96-57.2zM807.52 472L702.96 603.92a16 16 0 0 0-3.44 10.88l0.4 6.72 8.64 142c-1.76 32.96-15.36 32.96-22.72 32.96a66 66 0 0 1-18.32-3.12l-160.96-56a16 16 0 0 0-11.04 0L353.44 792a98 98 0 0 1-29.2 6.48c-6.64 0-8.4-1.92-9.12-2.64-1.84-2-5.92-9.12-3.84-31.12v-1.04q2.56-83.52 5.04-167.04a16 16 0 0 0-3.76-10.72L216 470.56c-8.88-14-12.24-24.88-9.76-31.6s15.04-13.04 24.48-16L282.56 408l112-32a16 16 0 0 0 8.96-6.64l82.96-125.84c5.44-8 14.24-17.68 24.8-17.68 8.56 0 18.08 6.32 26.56 17.44l96 137.76a16 16 0 0 0 9.2 6.32l147.76 37.68c15.2 5.04 24.72 11.6 26.88 18.32s-1.68 16.72-10.16 28.64z" fill="#606060" p-id="2178"></path></svg>