<?xml version="1.0" standalone="no"?><!DOCTYPE svg PUBLIC "-//W3C//DTD SVG 1.1//EN" "http://www.w3.org/Graphics/SVG/1.1/DTD/svg11.dtd"><svg t="1584261381995" class="icon" viewBox="0 0 1024 1024" version="1.1" xmlns="http://www.w3.org/2000/svg" p-id="2520" xmlns:xlink="http://www.w3.org/1999/xlink" width="200" height="200"><defs><style type="text/css"></style></defs><path d="M0 0m204.8 0l614.4 0q204.8 0 204.8 204.8l0 614.4q0 204.8-204.8 204.8l-614.4 0q-204.8 0-204.8-204.8l0-614.4q0-204.8 204.8-204.8Z" fill="#95EFC2" p-id="2521"></path><path d="M819.2 0H534.272A756.48 756.48 0 0 0 0 483.584V819.2a204.8 204.8 0 0 0 204.8 204.8h614.4a204.8 204.8 0 0 0 204.8-204.8V204.8a204.8 204.8 0 0 0-204.8-204.8z" fill="#88EDBF" p-id="2522"></path><path d="M819.2 0h-3.84a755.2 755.2 0 0 0-539.392 1024H819.2a204.8 204.8 0 0 0 204.8-204.8V204.8a204.8 204.8 0 0 0-204.8-204.8z" fill="#79E8B8" p-id="2523"></path><path d="M497.152 721.152A752.384 752.384 0 0 0 560.384 1024H819.2a204.8 204.8 0 0 0 204.8-204.8V204.8a204.8 204.8 0 0 0-89.088-168.96 755.2 755.2 0 0 0-437.76 685.312z" fill="#69E2B3" p-id="2524"></path><path d="M512 512m-332.8 0a332.8 332.8 0 1 0 665.6 0 332.8 332.8 0 1 0-665.6 0Z" fill="#D7FFE9" p-id="2525"></path><path d="M768 460.8a332.8 332.8 0 0 0-111.872-248.32 332.8 332.8 0 0 0-365.056 547.84A332.8 332.8 0 0 0 768 460.8z" fill="#FFFFFF" p-id="2526"></path><path d="M513.024 328.96V512l87.808 103.168" fill="#FFFFFF" p-id="2527"></path><path d="M600.832 640a25.6 25.6 0 0 1-19.456-8.96l-87.808-102.4A25.6 25.6 0 0 1 486.4 512v-183.04a25.6 25.6 0 0 1 51.2 0v173.568l81.92 96a25.6 25.6 0 0 1-18.688 41.472z" fill="#79E8B8" p-id="2528"></path></svg>