<?xml version="1.0" standalone="no"?><!DOCTYPE svg PUBLIC "-//W3C//DTD SVG 1.1//EN" "http://www.w3.org/Graphics/SVG/1.1/DTD/svg11.dtd"><svg t="1584271418546" class="icon" viewBox="0 0 1024 1024" version="1.1" xmlns="http://www.w3.org/2000/svg" p-id="1470" xmlns:xlink="http://www.w3.org/1999/xlink" width="200" height="200"><defs><style type="text/css"></style></defs><path d="M426.542817 0.599756h170.530695C710.527404-1.899228 833.477436 32.886635 911.045912 112.954095c80.167419 77.568476 114.853323 200.518508 112.454298 313.972399v170.530696c2.399025 113.453892-32.286878 236.403924-112.454298 313.972399-77.568476 80.167419-200.518508 114.853323-313.9724 112.454298H426.542817c-113.453892 2.399025-236.403924-32.286878-313.9724-112.454298C32.402998 833.961073-2.282906 711.011041 0.116119 597.557149V427.026454C-2.282906 313.472603 32.402998 190.52257 112.570417 112.954095 190.138893 32.886635 313.088925-1.899228 426.542817 0.599756z" fill="#23C9FF" p-id="1471"></path><path d="M112.570417 112.954095C36.90117 186.224317 1.715469 299.878128 0.116119 407.834254c137.943939 0 249.79848-111.954501 249.798481-249.89844 0-42.782613-10.795613-83.066241-29.687935-118.251942-40.583507 17.892728-77.568476 42.182857-107.656248 73.270223z" fill="#FFFFFF" opacity=".5" p-id="1472"></path><path d="M725.221432 773.085813H409.049926c-87.364495 0-158.135733-70.771238-158.135733-158.135733V456.914307c0-113.553851 92.062585-205.516477 205.516477-205.516477h110.655029c113.553851 0 205.516477 92.062585 205.516477 205.516477V725.705069c0.099959 26.189356-21.091428 47.380744-47.380744 47.380744z m-252.897221-276.687552c0-17.492891-14.194231-31.587163-31.587163-31.587163-17.492891 0-31.587163 14.194231-31.587163 31.587163v31.587162c0 17.492891 14.194231 31.587163 31.587163 31.587163 17.492891 0 31.587163-14.194231 31.587163-31.587163v-31.587162z m142.242192 0c0-17.492891-14.194231-31.587163-31.587163-31.587163s-31.587163 14.194231-31.587163 31.587163v31.587162c0 17.492891 14.194231 31.587163 31.587163 31.587163s31.587163-14.194231 31.587163-31.587163v-31.587162z" fill="#FFFFFF" p-id="1473"></path><path d="M643.754541 746.596578c0 9.396181 0.799675 18.592444 2.498984 27.588788h78.56807c26.989031 0 48.880135-21.891103 48.880134-48.880135V594.458408c-73.67006 11.595288-129.947189 75.26941-129.947188 152.13817z" fill="#23C9FF" opacity=".5" p-id="1474"></path></svg>