<?xml version="1.0" standalone="no"?><!DOCTYPE svg PUBLIC "-//W3C//DTD SVG 1.1//EN" "http://www.w3.org/Graphics/SVG/1.1/DTD/svg11.dtd"><svg t="1578291368403" class="icon" viewBox="0 0 1024 1024" version="1.1" xmlns="http://www.w3.org/2000/svg" p-id="1347" xmlns:xlink="http://www.w3.org/1999/xlink" width="200" height="200"><defs><style type="text/css"></style></defs><path d="M813.84 214.88l-6.88-42.88L784 209.12c-44 72-138.48 117.04-238.56 164.4-41.44 19.6-84.32 40-124.8 62.8C330.88 484.4 256 588 304 701.28c0 0.96 0.88 1.84 1.36 2.8-48.64 22.88-84.48 66.48-104 126.96a16 16 0 1 0 30.64 9.84c17.36-53.68 47.6-90.32 89.92-109.12A194.08 194.08 0 0 0 480 808c51.36 0 131.04-19.04 218.96-106.96l0.88-1.52C840 534.4 831.52 324.96 813.84 214.88z m-138.24 464C612.24 742.08 544.48 776 480 776c-75.52 0-128.8-45.52-146.56-87.2-40.48-95.28 22.32-181.76 102.88-224.8 40-22.4 82.16-42.4 123.12-61.76C648.8 360 734 320 787.36 258.64c11.84 110 5.28 282.48-111.84 420.24z" fill="#606060" p-id="1348"></path></svg>